<svg xmlns="http://www.w3.org/2000/svg" width="800" height="1000" viewBox="0 0 800 1000"><defs><linearGradient id="dIconGrad" x1="0%" x2="100%" y1="0%" y2="100%"><stop offset="0%" stop-color="#571EFA"/><stop offset="100%" stop-color="#927AFA"/></linearGradient><linearGradient id="accentLineGrad" x1="0" x2="1" y1="0" y2="0"><stop offset="0%" stop-color="#571EFA" stop-opacity="0"/><stop offset="50%" stop-color="#927AFA" stop-opacity="1"/><stop offset="100%" stop-color="#571EFA" stop-opacity="0"/></linearGradient><linearGradient id="wordmarkGrad" x1="0" x2="1" y1="0" y2="0"><stop offset="0%" stop-color="#ffffff"/><stop offset="40%" stop-color="#ffffff"/><stop offset="100%" stop-color="#DDD6FE"/></linearGradient><radialGradient id="ambientGlow" cx="50%" cy="35%" r="35%"><stop offset="0%" stop-color="#571EFA" stop-opacity="0.12"/><stop offset="60%" stop-color="#341291" stop-opacity="0.04"/><stop offset="100%" stop-color="#0a0014" stop-opacity="0"/></radialGradient><pattern id="gridPattern" width="40" height="40" x="0" y="0" patternUnits="userSpaceOnUse"><path fill="none" stroke="#927AFA" stroke-width="0.3" d="M 40 0 L 0 0 0 40" opacity="0.08"/></pattern><filter id="dIconGlow" width="300%" height="300%" x="-100%" y="-100%"><feGaussianBlur result="blur1" stdDeviation="18"/><feGaussianBlur result="blur2" stdDeviation="6"/><feMerge><feMergeNode in="blur1"/><feMergeNode in="blur2"/><feMergeNode in="SourceGraphic"/></feMerge></filter><filter id="textGlow" width="120%" height="140%" x="-10%" y="-20%"><feGaussianBlur result="blur" stdDeviation="5"/><feMerge><feMergeNode in="blur"/><feMergeNode in="SourceGraphic"/></feMerge></filter><filter id="softGlow" width="200%" height="200%" x="-50%" y="-50%"><feGaussianBlur result="blur" stdDeviation="3"/><feMerge><feMergeNode in="blur"/><feMergeNode in="SourceGraphic"/></feMerge></filter><filter id="nodeGlow" width="400%" height="400%" x="-150%" y="-150%"><feGaussianBlur result="blur" stdDeviation="6"/><feMerge><feMergeNode in="blur"/><feMergeNode in="SourceGraphic"/></feMerge></filter><filter id="bgGlow" width="200%" height="200%" x="-50%" y="-50%"><feGaussianBlur result="blur" stdDeviation="30"/><feMerge><feMergeNode in="blur"/><feMergeNode in="SourceGraphic"/></feMerge></filter></defs><rect width="800" height="1000" fill="#0a0014"/><rect width="800" height="1000" fill="url(#gridPattern)"/><rect width="800" height="1000" fill="url(#ambientGlow)"/><g opacity="0.07"><circle cx="120" cy="150" r="2.5" fill="#927AFA"/><circle cx="680" cy="170" r="2" fill="#571EFA"/><circle cx="95" cy="320" r="1.8" fill="#DDD6FE"/><circle cx="710" cy="290" r="2.2" fill="#927AFA"/><circle cx="160" cy="480" r="2" fill="#571EFA"/><circle cx="640" cy="460" r="1.5" fill="#DDD6FE"/><circle cx="130" cy="700" r="2" fill="#927AFA"/><circle cx="670" cy="680" r="2.5" fill="#571EFA"/><circle cx="100" cy="820" r="1.5" fill="#DDD6FE"/><circle cx="700" cy="850" r="2" fill="#927AFA"/><circle cx="180" cy="900" r="1.8" fill="#571EFA"/><circle cx="620" cy="920" r="2.2" fill="#927AFA"/><circle cx="350" cy="930" r="1.5" fill="#DDD6FE"/><circle cx="450" cy="140" r="1.5" fill="#927AFA"/><line x1="120" x2="680" y1="150" y2="170" stroke="#927AFA" stroke-width="0.4"/><line x1="95" x2="710" y1="320" y2="290" stroke="#571EFA" stroke-width="0.3"/><line x1="160" x2="640" y1="480" y2="460" stroke="#927AFA" stroke-width="0.3"/><line x1="130" x2="670" y1="700" y2="680" stroke="#571EFA" stroke-width="0.4"/><line x1="100" x2="700" y1="820" y2="850" stroke="#927AFA" stroke-width="0.3"/><line x1="120" x2="95" y1="150" y2="320" stroke="#927AFA" stroke-width="0.3"/><line x1="680" x2="710" y1="170" y2="290" stroke="#571EFA" stroke-width="0.3"/><line x1="130" x2="100" y1="700" y2="820" stroke="#927AFA" stroke-width="0.3"/><line x1="670" x2="700" y1="680" y2="850" stroke="#571EFA" stroke-width="0.3"/><line x1="180" x2="350" y1="900" y2="930" stroke="#927AFA" stroke-width="0.3"/><line x1="620" x2="350" y1="920" y2="930" stroke="#571EFA" stroke-width="0.3"/><line x1="450" x2="680" y1="140" y2="170" stroke="#927AFA" stroke-width="0.3"/></g><g opacity="0.06" transform="translate(400, 310)"><path fill="#927AFA" d="M-10,0 Q-60,-30 -110,-15 L-110,50 Q-60,35 -10,60 Z"/><path fill="#927AFA" d="M10,0 Q60,-30 110,-15 L110,50 Q60,35 10,60 Z"/><line x1="0" x2="0" y1="-5" y2="65" stroke="#DDD6FE" stroke-width="2"/></g><g opacity="0.04" transform="translate(400, 150)"><polygon fill="#927AFA" points="0,-20 50,0 0,20 -50,0"/><line x1="50" x2="55" y1="0" y2="30" stroke="#DDD6FE" stroke-width="2"/><circle cx="55" cy="33" r="4" fill="#DDD6FE"/></g><g transform="translate(400, 320)"><circle r="110" fill="none" stroke="#571EFA" stroke-width="0.5" opacity="0.15"/><circle r="95" fill="none" stroke="#927AFA" stroke-width="0.3" opacity="0.1"/><rect width="130" height="130" x="-65" y="-65" fill="url(#dIconGrad)" filter="url(#dIconGlow)" rx="28"/><rect width="116" height="60" x="-58" y="-62" fill="#ffffff" opacity="0.06" rx="20"/><path fill="#ffffff" d="M-25,-35 L-25,35 L10,35 C35,35 45,18 45,0 C45,-18 35,-35 10,-35 Z M-10,-20 L8,-20 C22,-20 28,-10 28,0 C28,10 22,20 8,20 L-10,20 Z" opacity="0.95"/></g><g filter="url(#nodeGlow)"><circle cx="280" cy="260" r="5" fill="#927AFA" opacity="0.5"/><circle cx="520" cy="260" r="5" fill="#571EFA" opacity="0.5"/><circle cx="270" cy="380" r="4" fill="#571EFA" opacity="0.4"/><circle cx="530" cy="380" r="4" fill="#927AFA" opacity="0.4"/></g><g filter="url(#softGlow)" opacity="0.15"><line x1="280" x2="345" y1="260" y2="300" stroke="#927AFA" stroke-dasharray="4,4" stroke-width="1"/><line x1="520" x2="455" y1="260" y2="300" stroke="#571EFA" stroke-dasharray="4,4" stroke-width="1"/><line x1="270" x2="345" y1="380" y2="345" stroke="#571EFA" stroke-dasharray="4,4" stroke-width="0.8"/><line x1="530" x2="455" y1="380" y2="345" stroke="#927AFA" stroke-dasharray="4,4" stroke-width="0.8"/></g><text x="400" y="510" fill="url(#wordmarkGrad)" filter="url(#textGlow)" font-family="Arial, Helvetica, sans-serif" font-size="72" font-weight="700" letter-spacing="2" text-anchor="middle">
    open<tspan fill="#DDD6FE">Desk</tspan>
  </text><text x="400" y="560" fill="#DDD6FE" font-family="Arial, Helvetica, sans-serif" font-size="22" font-weight="400" letter-spacing="10" opacity="0.85" text-anchor="middle">
    EDUCATION
  </text><line x1="280" x2="520" y1="585" y2="585" stroke="url(#accentLineGrad)" stroke-width="1" opacity="0.4"/><text x="400" y="625" fill="#927AFA" font-family="Arial, Helvetica, sans-serif" font-size="15" font-weight="300" letter-spacing="4" opacity="0.55" text-anchor="middle">
    LEARN. CONNECT. GROW.
  </text><g opacity="0.08" transform="translate(400, 760)"><polygon fill="none" stroke="#927AFA" stroke-width="1" points="0,-25 22,-12.5 22,12.5 0,25 -22,12.5 -22,-12.5"/><polygon fill="none" stroke="#571EFA" stroke-width="0.8" points="0,-60 15,-52.5 15,-37.5 0,-30 -15,-37.5 -15,-52.5" transform="translate(0,0)"/><polygon fill="none" stroke="#571EFA" stroke-width="0.8" points="38,-5 53,5 53,20 38,30 23,20 23,5" transform="translate(0,-10)"/><polygon fill="none" stroke="#571EFA" stroke-width="0.8" points="-38,-5 -23,5 -23,20 -38,30 -53,20 -53,5" transform="translate(0,-10)"/><line x1="0" x2="0" y1="-25" y2="-30" stroke="#927AFA" stroke-width="0.6"/><line x1="22" x2="38" y1="0" y2="0" stroke="#927AFA" stroke-width="0.6" transform="translate(0,-10)"/><line x1="-22" x2="-38" y1="0" y2="0" stroke="#927AFA" stroke-width="0.6" transform="translate(0,-10)"/></g><rect width="120" height="2" x="340" y="830" fill="#571EFA" opacity="0.2" rx="1"/><circle cx="370" cy="860" r="2" fill="#571EFA" opacity="0.15"/><circle cx="400" cy="860" r="2.5" fill="#927AFA" opacity="0.2"/><circle cx="430" cy="860" r="2" fill="#571EFA" opacity="0.15"/></svg>