<svg xmlns="http://www.w3.org/2000/svg" width="1200" height="630" viewBox="0 0 1200 630"><title>openDesk Edu - Contributor Agreement</title><desc>Branded teaser image for the openDesk Edu contributor agreement article featuring a dark purple gradient background, document/contract icon, grid pattern, and article title.</desc><defs><linearGradient id="bgGrad" x1="0%" x2="100%" y1="0%" y2="100%"><stop offset="0%" stop-color="#0a0014"/><stop offset="50%" stop-color="#0d0020"/><stop offset="100%" stop-color="#0a0014"/></linearGradient><linearGradient id="accentLeft" x1="0%" x2="100%" y1="0%" y2="0%"><stop offset="0%" stop-color="#571EFA" stop-opacity="0.3"/><stop offset="100%" stop-color="#571EFA" stop-opacity="0"/></linearGradient><linearGradient id="accentRight" x1="100%" x2="0%" y1="0%" y2="0%"><stop offset="0%" stop-color="#927AFA" stop-opacity="0.2"/><stop offset="100%" stop-color="#927AFA" stop-opacity="0"/></linearGradient><linearGradient id="iconGrad" x1="0%" x2="100%" y1="0%" y2="100%"><stop offset="0%" stop-color="#571EFA"/><stop offset="100%" stop-color="#927AFA"/></linearGradient><filter id="glowWide" width="300%" height="300%" x="-100%" y="-100%"><feGaussianBlur in="SourceGraphic" stdDeviation="40"/></filter><pattern id="grid" width="60" height="60" patternUnits="userSpaceOnUse"><path fill="none" stroke="#571EFA" stroke-width="0.5" d="M 60 0 L 0 0 0 60" opacity="0.06"/></pattern><pattern id="dotGrid" width="40" height="40" patternUnits="userSpaceOnUse"><circle cx="20" cy="20" r="1" fill="#927AFA" opacity="0.12"/></pattern></defs><rect width="1200" height="630" fill="url(#bgGrad)"/><rect width="1200" height="630" fill="url(#grid)"/><rect width="1200" height="630" fill="url(#dotGrid)"/><rect width="200" height="630" x="0" y="0" fill="url(#accentLeft)"/><rect width="200" height="630" x="1000" y="0" fill="url(#accentRight)"/><rect width="1200" height="2" x="0" y="0" fill="#571EFA" opacity="0.4"/><rect width="1200" height="2" x="0" y="628" fill="#927AFA" opacity="0.2"/><ellipse cx="200" cy="315" fill="#571EFA" filter="url(#glowWide)" opacity="0.06" rx="250" ry="250"/><ellipse cx="1000" cy="315" fill="#927AFA" filter="url(#glowWide)" opacity="0.04" rx="200" ry="200"/><g opacity="0.10" transform="translate(60, 100)"><rect width="80" height="100" x="0" y="0" fill="none" stroke="#927AFA" stroke-width="2" rx="4"/><line x1="20" x2="60" y1="30" y2="30" stroke="#927AFA" stroke-width="1.5"/><line x1="20" x2="60" y1="45" y2="45" stroke="#927AFA" stroke-width="1.5"/><line x1="20" x2="50" y1="60" y2="60" stroke="#927AFA" stroke-width="1.5"/><text x="40" y="82" fill="#927AFA" font-family="monospace" font-size="12" text-anchor="middle">CLA</text></g><g transform="translate(60, 130)"><rect width="110" height="110" x="0" y="0" fill="url(#iconGrad)" opacity="0.9" rx="22"/><text x="55" y="82" fill="white" font-family="Arial, Helvetica, sans-serif" font-size="76" font-weight="bold" opacity="0.95" text-anchor="middle">D</text></g><text x="200" y="194" fill="white" font-family="Arial, Helvetica, sans-serif" font-size="36" font-weight="bold" letter-spacing="2">openDesk</text><text x="200" y="222" fill="#DDD6FE" font-family="Arial, Helvetica, sans-serif" font-size="18" font-weight="300" letter-spacing="10">EDUCATION</text><line x1="200" x2="380" y1="236" y2="236" stroke="#571EFA" stroke-width="1" opacity="0.4"/><rect width="110" height="28" x="200" y="260" fill="#571EFA" opacity="0.25" rx="14"/><text x="255" y="279" fill="#927AFA" font-family="Arial, Helvetica, sans-serif" font-size="13" font-weight="600" letter-spacing="1" text-anchor="middle">COMMUNITY</text><line x1="200" x2="950" y1="312" y2="312" stroke="#571EFA" stroke-width="1.5" opacity="0.2"/><text x="200" y="340" fill="white" font-family="Arial, Helvetica, sans-serif" font-size="28" font-weight="700">
    <tspan x="200" dy="0">TL;DR: openDesk</tspan>
    <tspan x="200" fill="#DDD6FE" dy="38" font-size="22" font-weight="400">Contributor Agreement</tspan>
  </text><text x="200" y="420" fill="#927AFA" font-family="Arial, Helvetica, sans-serif" font-size="15" opacity="0.8">
    <tspan x="200" dy="0">Sign the CLA, start contributing.</tspan>
    <tspan x="200" dy="22">Your first merge request in under 10 minutes.</tspan>
  </text><g transform="translate(200, 480)"><rect width="105" height="24" x="0" y="0" fill="#571EFA" opacity="0.2" rx="12"/><text x="52" y="16" fill="#927AFA" font-family="Arial, Helvetica, sans-serif" font-size="11" font-weight="500" text-anchor="middle">Contributing</text><rect width="65" height="24" x="115" y="0" fill="#571EFA" opacity="0.15" rx="12"/><text x="147" y="16" fill="#927AFA" font-family="Arial, Helvetica, sans-serif" font-size="11" font-weight="500" text-anchor="middle">CLA</text><rect width="100" height="24" x="190" y="0" fill="#571EFA" opacity="0.15" rx="12"/><text x="240" y="16" fill="#927AFA" font-family="Arial, Helvetica, sans-serif" font-size="11" font-weight="500" text-anchor="middle">Open Source</text></g><g opacity="0.06"><text x="200" y="553" fill="#22c55e" font-family="monospace" font-size="10">sign</text><path stroke="#927AFA" stroke-width="1" d="M 228,548 L 258,548"/><text x="264" y="553" fill="#3b82f6" font-family="monospace" font-size="10">commit</text><path stroke="#927AFA" stroke-width="1" d="M 308,548 L 338,548"/><text x="344" y="553" fill="#571EFA" font-family="monospace" font-size="10">contribute</text></g><line x1="1000" x2="1000" y1="100" y2="530" stroke="#571EFA" stroke-width="0.5" opacity="0.06"/><line x1="1050" x2="1050" y1="150" y2="500" stroke="#927AFA" stroke-width="0.5" opacity="0.05"/><line x1="1100" x2="1100" y1="120" y2="480" stroke="#571EFA" stroke-width="0.5" opacity="0.04"/><path fill="none" stroke="#571EFA" stroke-width="1.5" d="M 20,20 L 50,20 M 20,20 L 20,50" opacity="0.25"/><path fill="none" stroke="#927AFA" stroke-width="1.5" d="M 1180,20 L 1150,20 M 1180,20 L 1180,50" opacity="0.2"/><path fill="none" stroke="#571EFA" stroke-width="1.5" d="M 20,610 L 50,610 M 20,610 L 20,580" opacity="0.25"/><path fill="none" stroke="#927AFA" stroke-width="1.5" d="M 1180,610 L 1150,610 M 1180,610 L 1180,580" opacity="0.2"/></svg>