<svg xmlns="http://www.w3.org/2000/svg" viewBox="0 0 1200 630" width="1200" height="630">
  <defs>
    <linearGradient id="bgGrad" x1="0%" y1="0%" x2="100%" y2="100%">
      <stop offset="0%" stop-color="#0a0014"/>
      <stop offset="50%" stop-color="#0d0020"/>
      <stop offset="100%" stop-color="#0a0014"/>
    </linearGradient>
    <linearGradient id="iconGrad" x1="0%" y1="0%" x2="100%" y2="100%">
      <stop offset="0%" stop-color="#571EFA"/>
      <stop offset="100%" stop-color="#927AFA"/>
    </linearGradient>
    <linearGradient id="cardGrad" x1="0%" y1="0%" x2="0%" y2="100%">
      <stop offset="0%" stop-color="#1a0a30" stop-opacity="0.9"/>
      <stop offset="100%" stop-color="#120824" stop-opacity="0.7"/>
    </linearGradient>
    <linearGradient id="greenGrad" x1="0%" y1="0%" x2="100%" y2="100%">
      <stop offset="0%" stop-color="#22c55e"/>
      <stop offset="100%" stop-color="#16a34a"/>
    </linearGradient>
    <linearGradient id="blueGrad" x1="0%" y1="0%" x2="100%" y2="100%">
      <stop offset="0%" stop-color="#3b82f6"/>
      <stop offset="100%" stop-color="#2563eb"/>
    </linearGradient>
    <linearGradient id="ambarGrad" x1="0%" y1="0%" x2="100%" y2="100%">
      <stop offset="0%" stop-color="#f59e0b"/>
      <stop offset="100%" stop-color="#d97706"/>
    </linearGradient>
    <linearGradient id="redGrad" x1="0%" y1="0%" x2="100%" y2="100%">
      <stop offset="0%" stop-color="#ef4444"/>
      <stop offset="100%" stop-color="#dc2626"/>
    </linearGradient>
    <filter id="glowWide" x="-100%" y="-100%" width="300%" height="300%">
      <feGaussianBlur in="SourceGraphic" stdDeviation="40"/>
    </filter>
    <filter id="glowSoft" x="-30%" y="-30%" width="160%" height="160%">
      <feGaussianBlur in="SourceGraphic" stdDeviation="6" result="blur"/>
      <feMerge>
        <feMergeNode in="blur"/>
        <feMergeNode in="SourceGraphic"/>
      </feMerge>
    </filter>
    <filter id="glowBox">
      <feGaussianBlur in="SourceGraphic" stdDeviation="3" result="blur"/>
      <feMerge>
        <feMergeNode in="blur"/>
        <feMergeNode in="SourceGraphic"/>
      </feMerge>
    </filter>
    <linearGradient id="edgeLeft" x1="0%" y1="0%" x2="100%" y2="0%">
      <stop offset="0%" stop-color="#571EFA" stop-opacity="0.25"/>
      <stop offset="100%" stop-color="#571EFA" stop-opacity="0"/>
    </linearGradient>
    <linearGradient id="edgeRight" x1="100%" y1="0%" x2="0%" y2="0%">
      <stop offset="0%" stop-color="#927AFA" stop-opacity="0.2"/>
      <stop offset="100%" stop-color="#927AFA" stop-opacity="0"/>
    </linearGradient>
    <linearGradient id="leftToPurple" x1="0%" y1="0%" x2="100%" y2="0%">
      <stop offset="0%" stop-color="#571EFA" stop-opacity="0.15"/>
      <stop offset="100%" stop-color="#571EFA" stop-opacity="0"/>
    </linearGradient>
    <pattern id="grid" width="60" height="60" patternUnits="userSpaceOnUse">
      <path d="M 60 0 L 0 0 0 60" fill="none" stroke="#571EFA" stroke-width="0.5" opacity="0.06"/>
    </pattern>
    <pattern id="dotGrid" width="40" height="40" patternUnits="userSpaceOnUse">
      <circle cx="20" cy="20" r="1" fill="#927AFA" opacity="0.1"/>
    </pattern>
    <marker id="arrowGreen" markerWidth="10" markerHeight="7" refX="10" refY="3.5" orient="auto">
      <polygon points="0 0, 10 3.5, 0 7" fill="#22c55e"/>
    </marker>
    <marker id="arrowBlue" markerWidth="10" markerHeight="7" refX="10" refY="3.5" orient="auto">
      <polygon points="0 0, 10 3.5, 0 7" fill="#3b82f6"/>
    </marker>
    <marker id="arrowPurple" markerWidth="10" markerHeight="7" refX="10" refY="3.5" orient="auto">
      <polygon points="0 0, 10 3.5, 0 7" fill="#927AFA"/>
    </marker>
  </defs>

  <!-- Background -->
  <rect width="1200" height="630" fill="url(#bgGrad)"/>
  <rect width="1200" height="630" fill="url(#grid)"/>
  <rect width="1200" height="630" fill="url(#dotGrid)"/>

  <!-- Edge accents -->
  <rect x="0" y="0" width="250" height="630" fill="url(#edgeLeft)"/>
  <rect x="950" y="0" width="250" height="630" fill="url(#edgeRight)"/>
  <rect x="0" y="0" width="1200" height="2" fill="#571EFA" opacity="0.35"/>
  <rect x="0" y="628" width="1200" height="2" fill="#927AFA" opacity="0.2"/>

  <!-- Ambient glow -->
  <ellipse cx="200" cy="315" rx="300" ry="250" fill="#571EFA" opacity="0.06" filter="url(#glowWide)"/>
  <ellipse cx="1000" cy="315" rx="250" ry="250" fill="#927AFA" opacity="0.04" filter="url(#glowWide)"/>

  <!-- Corner accents -->
  <path d="M 15,15 L 45,15 M 15,15 L 15,45" stroke="#571EFA" stroke-width="1.5" opacity="0.3" fill="none"/>
  <path d="M 1185,15 L 1155,15 M 1185,15 L 1185,45" stroke="#927AFA" stroke-width="1.5" opacity="0.2" fill="none"/>
  <path d="M 15,615 L 45,615 M 15,615 L 15,585" stroke="#571EFA" stroke-width="1.5" opacity="0.3" fill="none"/>
  <path d="M 1185,615 L 1155,615 M 1185,615 L 1185,585" stroke="#927AFA" stroke-width="1.5" opacity="0.2" fill="none"/>

  <!-- ============ LEFT: ARCHITECTURE VISUAL ============ -->

  <!-- Git repo icon at top-left -->
  <g transform="translate(45, 45)">
    <!-- Git icon -->
    <rect x="0" y="0" width="440" height="390" rx="12" fill="url(#cardGrad)" stroke="#571EFA" stroke-width="1" stroke-opacity="0.35"/>
    <rect x="2" y="2" width="436" height="386" rx="10" fill="none" stroke="#927AFA" stroke-width="0.5" stroke-opacity="0.15"/>

    <!-- Git Repo Badge -->
    <g transform="translate(15, 15)">
      <rect x="0" y="0" width="90" height="22" rx="6" fill="url(#iconGrad)" opacity="0.3"/>
      <text x="10" y="15" font-family="'Courier New', monospace" font-size="11" font-weight="bold" fill="#927AFA">GIT REPO</text>
      <!-- Branch icon -->
      <path d="M 100,11 L 120,11 M 110,11 L 110,4 M 110,4 C 110,4 100,4 100,10" stroke="#927AFA" stroke-width="1.5" fill="none" opacity="0.6"/>
    </g>

    <!-- Config files listing -->
    <g transform="translate(15, 50)">
      <rect x="0" y="0" width="210" height="28" rx="4" fill="#1a0a30" stroke="#927AFA" stroke-width="0.5" stroke-opacity="0.15"/>
      <text x="10" y="18" font-family="'Courier New', monospace" font-size="10" fill="#DDD6FE">apps/</text>
      <rect x="50" y="5" width="55" height="18" rx="3" fill="#571EFA" opacity="0.15"/>
      <text x="55" y="18" font-family="'Courier New', monospace" font-size="8" fill="#927AFA">D 30+</text>
    </g>
    <g transform="translate(15, 84)">
      <rect x="0" y="0" width="210" height="28" rx="4" fill="#1a0a30" stroke="#927AFA" stroke-width="0.5" stroke-opacity="0.15"/>
      <text x="10" y="18" font-family="'Courier New', monospace" font-size="10" fill="#DDD6FE">envs/</text>
      <rect x="50" y="5" width="40" height="18" rx="3" fill="#3b82f6" opacity="0.15"/>
      <text x="55" y="18" font-family="'Courier New', monospace" font-size="8" fill="#3b82f6">3 envs</text>
    </g>
    <g transform="translate(15, 118)">
      <rect x="0" y="0" width="210" height="28" rx="4" fill="#1a0a30" stroke="#927AFA" stroke-width="0.5" stroke-opacity="0.15"/>
      <text x="10" y="18" font-family="'Courier New', monospace" font-size="10" fill="#DDD6FE">clusters/</text>
      <rect x="50" y="5" width="70" height="18" rx="3" fill="#22c55e" opacity="0.15"/>
      <text x="55" y="18" font-family="'Courier New', monospace" font-size="8" fill="#22c55e">multi-c... →</text>
    </g>

    <!-- Arrow from Git to patterns -->
    <line x1="225" y1="100" x2="320" y2="100" stroke="#927AFA" stroke-width="1.5" stroke-dasharray="4,3" opacity="0.4"/>
    <line x1="320" y1="100" x2="320" y2="145" stroke="#927AFA" stroke-width="1.5" stroke-dasharray="4,3" opacity="0.4"/>
    <line x1="320" y1="100" x2="320" y2="250" stroke="#927AFA" stroke-width="1.5" stroke-dasharray="4,3" opacity="0.4"/>

    <!-- Branches -->
    <line x1="320" y1="145" x2="360" y2="145" stroke="#22c55e" stroke-width="1.5" marker-end="url(#arrowGreen)"/>
    <line x1="320" y1="250" x2="360" y2="250" stroke="#3b82f6" stroke-width="1.5" marker-end="url(#arrowBlue)"/>

    <!-- Section label: choose your pattern -->
    <text x="300" y="130" text-anchor="middle" font-family="'Segoe UI', Arial, sans-serif" font-size="9" fill="#927AFA" letter-spacing="1" opacity="0.6">CHOOSE YOUR PATTERN</text>

    <!-- ===== TOP: App of Apps pattern ===== -->
    <g transform="translate(370, 110)">
      <rect x="0" y="0" width="370" height="95" rx="8" fill="url(#cardGrad)" stroke="#22c55e" stroke-width="1" stroke-opacity="0.4"/>
      <rect x="2" y="2" width="366" height="91" rx="6" fill="none" stroke="#22c55e" stroke-width="0.5" stroke-opacity="0.15"/>

      <!-- Label -->
      <rect x="10" y="8" width="110" height="18" rx="4" fill="#22c55e" opacity="0.15"/>
      <text x="65" y="21" text-anchor="middle" font-family="'Segoe UI', Arial, sans-serif" font-size="10" font-weight="600" fill="#22c55e">APP OF APPS</text>

      <!-- Tree diagram -->
      <g transform="translate(15, 35)">
        <!-- Root -->
        <rect x="0" y="0" width="100" height="20" rx="4" fill="#1a0a30" stroke="#22c55e" stroke-width="0.5" opacity="0.5"/>
        <text x="10" y="14" font-family="'Courier New', monospace" font-size="8" fill="#86efac">root-app.yaml</text>
        <!-- Connector -->
        <line x1="50" y1="20" x2="50" y2="28" stroke="#22c55e" stroke-width="0.8" opacity="0.4"/>
        <line x1="15" y1="28" x2="85" y2="28" stroke="#22c55e" stroke-width="0.8" opacity="0.4"/>
        <!-- Children -->
        <line x1="15" y1="28" x2="15" y2="36" stroke="#22c55e" stroke-width="0.8" opacity="0.4"/>
        <rect x="0" y="36" width="30" height="16" rx="3" fill="#1a0a30" stroke="#22c55e" stroke-width="0.5" opacity="0.3"/>
        <text x="4" y="47" font-family="'Courier New', monospace" font-size="7" fill="#86efac">nextcloud</text>
        <line x1="50" y1="28" x2="50" y2="36" stroke="#22c55e" stroke-width="0.8" opacity="0.4"/>
        <rect x="35" y="36" width="24" height="16" rx="3" fill="#1a0a30" stroke="#22c55e" stroke-width="0.5" opacity="0.3"/>
        <text x="38" y="47" font-family="'Courier New', monospace" font-size="7" fill="#86efac">sogo</text>
        <line x1="75" y1="28" x2="75" y2="36" stroke="#22c55e" stroke-width="0.8" opacity="0.4"/>
        <rect x="65" y="36" width="20" height="16" rx="3" fill="#1a0a30" stroke="#22c55e" stroke-width="0.5" opacity="0.3"/>
        <text x="68" y="47" font-family="'Courier New', monospace" font-size="7" fill="#86efac">...</text>
      </g>

      <!-- Tree label -->
      <text x="265" y="60" text-anchor="middle" font-family="'Segoe UI', Arial, sans-serif" font-size="7" fill="#86efac" opacity="0.6">One YAML per app · Clear hierarchy</text>
      <text x="265" y="76" text-anchor="middle" font-family="'Segoe UI', Arial, sans-serif" font-size="7" fill="#86efac" opacity="0.6">Manual per-environment · No auto-scaling</text>
    </g>

    <!-- ===== BOTTOM: ApplicationSet pattern ===== -->
    <g transform="translate(370, 215)">
      <rect x="0" y="0" width="370" height="95" rx="8" fill="url(#cardGrad)" stroke="#3b82f6" stroke-width="1" stroke-opacity="0.4"/>
      <rect x="2" y="2" width="366" height="91" rx="6" fill="none" stroke="#3b82f6" stroke-width="0.5" stroke-opacity="0.15"/>

      <!-- Label -->
      <rect x="10" y="8" width="130" height="18" rx="4" fill="#3b82f6" opacity="0.15"/>
      <text x="75" y="21" text-anchor="middle" font-family="'Segoe UI', Arial, sans-serif" font-size="10" font-weight="600" fill="#3b82f6">APPLICATIONSET</text>

      <!-- Template + Generator diagram -->
      <g transform="translate(15, 35)">
        <!-- Generator box -->
        <rect x="0" y="0" width="100" height="28" rx="4" fill="#1a0a30" stroke="#3b82f6" stroke-width="0.5" opacity="0.5"/>
        <text x="10" y="12" font-family="'Courier New', monospace" font-size="8" fill="#93c5fd">generators:</text>
        <text x="10" y="22" font-family="'Courier New', monospace" font-size="7" fill="#93c5fd" opacity="0.7">  - git/dirs</text>
        <!-- Arrow -->
        <line x1="100" y1="10" x2="120" y2="10" stroke="#3b82f6" stroke-width="0.8" opacity="0.5" marker-end="url(#arrowBlue)"/>
        <line x1="100" y1="20" x2="120" y2="20" stroke="#3b82f6" stroke-width="0.8" opacity="0.5" marker-end="url(#arrowBlue)"/>
        <!-- Template box -->
        <rect x="125" y="0" width="100" height="28" rx="4" fill="#1a0a30" stroke="#3b82f6" stroke-width="0.5" opacity="0.5"/>
        <text x="135" y="12" font-family="'Courier New', monospace" font-size="8" fill="#93c5fd">template:</text>
        <text x="135" y="22" font-family="'Courier New', monospace" font-size="7" fill="#93c5fd" opacity="0.7">  spec: {...}</text>
        <!-- Output arrow -->
        <line x1="225" y1="14" x2="245" y2="14" stroke="#3b82f6" stroke-width="0.8" opacity="0.5" marker-end="url(#arrowBlue)"/>
        <!-- N apps output -->
        <rect x="250" y="0" width="100" height="28" rx="4" fill="url(#blueGrad)" opacity="0.15" stroke="#3b82f6" stroke-width="0.5"/>
        <text x="300" y="17" text-anchor="middle" font-family="'Courier New', monospace" font-size="10" font-weight="bold" fill="#93c5fd">N apps</text>
      </g>

      <!-- Template label -->
      <text x="265" y="80" text-anchor="middle" font-family="'Segoe UI', Arial, sans-serif" font-size="7" fill="#93c5fd" opacity="0.6">Template · Auto-discovery · Multi-cluster</text>
    </g>

    <!-- Arrow from both patterns to cluster -->
    <line x1="740" y1="157" x2="770" y2="157" stroke="#927AFA" stroke-width="1.5" stroke-dasharray="4,3" opacity="0.4"/>
    <line x1="770" y1="157" x2="770" y2="250" stroke="#927AFA" stroke-width="1.5" stroke-dasharray="4,3" opacity="0.4"/>
    <line x1="770" y1="250" x2="800" y2="250" stroke="#927AFA" stroke-width="1.5" stroke-dasharray="4,3" opacity="0.4"/>

    <!-- + label -->
    <text x="755" y="210" text-anchor="middle" font-family="'Segoe UI', Arial, sans-serif" font-size="14" font-weight="bold" fill="#927AFA" opacity="0.5">or</text>

    <!-- Cluster box -->
    <g transform="translate(800, 210)">
      <rect x="0" y="0" width="100" height="80" rx="8" fill="url(#cardGrad)" stroke="#927AFA" stroke-width="1" stroke-opacity="0.4"/>
      <!-- Nodes -->
      <rect x="10" y="12" width="80" height="16" rx="4" fill="#1a0a30" stroke="#927AFA" stroke-width="0.5" opacity="0.3"/>
      <circle cx="20" cy="20" r="3" fill="#22c55e" opacity="0.7"/>
      <text x="28" y="23" font-family="'Courier New', monospace" font-size="8" fill="#DDD6FE">k8s</text>
      <rect x="10" y="34" width="80" height="16" rx="4" fill="#1a0a30" stroke="#927AFA" stroke-width="0.5" opacity="0.3"/>
      <circle cx="20" cy="42" r="3" fill="#22c55e" opacity="0.7"/>
      <text x="28" y="45" font-family="'Courier New', monospace" font-size="8" fill="#DDD6FE">clusters</text>
      <rect x="10" y="56" width="80" height="16" rx="4" fill="#1a0a30" stroke="#927AFA" stroke-width="0.5" opacity="0.3"/>
      <circle cx="20" cy="64" r="3" fill="#22c55e" opacity="0.7"/>
      <text x="28" y="67" font-family="'Courier New', monospace" font-size="8" fill="#DDD6FE">x N</text>

      <!-- ArgoCD logo circle -->
      <circle cx="50" cy="0" r="10" fill="url(#iconGrad)" filter="url(#glowBox)"/>
      <text x="50" y="4" text-anchor="middle" font-family="'Segoe UI', Arial, sans-serif" font-size="7" font-weight="bold" fill="white">ACD</text>
    </g>
  </g>

  <!-- ============ RIGHT: METRICS & HEADLINE ============ -->

  <!-- Metric: 30+ Services -->
  <g transform="translate(500, 45)">
    <rect width="270" height="52" rx="8" fill="url(#cardGrad)" stroke="#571EFA" stroke-width="1" stroke-opacity="0.3"/>
    <rect x="2" y="2" width="266" height="48" rx="6" fill="none" stroke="#927AFA" stroke-width="0.5" stroke-opacity="0.15"/>
    <text x="15" y="32" font-family="'Segoe UI', Arial, sans-serif" font-size="24" font-weight="700" fill="white" filter="url(#glowBox)">30+</text>
    <text x="60" y="23" font-family="'Segoe UI', Arial, sans-serif" font-size="11" fill="#DDD6FE" font-weight="500">Services</text>
    <text x="60" y="39" font-family="'Segoe UI', Arial, sans-serif" font-size="10" fill="#927AFA">Helmfile monolith</text>
    <rect x="235" y="10" width="20" height="20" rx="5" fill="url(#ambarGrad)" opacity="0.4"/>
    <text x="245" y="24" text-anchor="middle" font-family="'Segoe UI', Arial, sans-serif" font-size="9" fill="#f59e0b" font-weight="600">!</text>
  </g>

  <!-- Metric: 8 Sync Phases -->
  <g transform="translate(500, 107)">
    <rect width="270" height="52" rx="8" fill="url(#cardGrad)" stroke="#571EFA" stroke-width="1" stroke-opacity="0.3"/>
    <rect x="2" y="2" width="266" height="48" rx="6" fill="none" stroke="#927AFA" stroke-width="0.5" stroke-opacity="0.15"/>
    <text x="15" y="32" font-family="'Segoe UI', Arial, sans-serif" font-size="24" font-weight="700" fill="white" filter="url(#glowBox)">8</text>
    <text x="60" y="23" font-family="'Segoe UI', Arial, sans-serif" font-size="11" fill="#DDD6FE" font-weight="500">Sync Phases</text>
    <text x="60" y="39" font-family="'Segoe UI', Arial, sans-serif" font-size="10" fill="#927AFA">Ordered deployments</text>
    <rect x="235" y="10" width="20" height="20" rx="5" fill="url(#ambarGrad)" opacity="0.4"/>
    <text x="245" y="24" text-anchor="middle" font-family="'Segoe UI', Arial, sans-serif" font-size="9" fill="#f59e0b" font-weight="600">!</text>
  </g>

  <!-- Metric: Multi-Cluster target -->
  <g transform="translate(500, 169)">
    <rect width="270" height="52" rx="8" fill="url(#cardGrad)" stroke="#571EFA" stroke-width="1" stroke-opacity="0.3"/>
    <rect x="2" y="2" width="266" height="48" rx="6" fill="none" stroke="#927AFA" stroke-width="0.5" stroke-opacity="0.15"/>
    <text x="15" y="32" font-family="'Segoe UI', Arial, sans-serif" font-size="24" font-weight="700" fill="white" filter="url(#glowBox)">x3</text>
    <text x="60" y="23" font-family="'Segoe UI', Arial, sans-serif" font-size="11" fill="#DDD6FE" font-weight="500">Environments</text>
    <text x="60" y="39" font-family="'Segoe UI', Arial, sans-serif" font-size="10" fill="#927AFA">dev · staging · prod</text>
    <rect x="235" y="10" width="20" height="20" rx="5" fill="url(#blueGrad)" opacity="0.4"/>
    <text x="245" y="24" text-anchor="middle" font-family="'Segoe UI', Arial, sans-serif" font-size="9" fill="#3b82f6" font-weight="600">→</text>
  </g>

  <!-- ============ HEADLINE ============ -->

  <g transform="translate(500, 240)">
    <!-- openDesk Edu brand mark -->
    <g transform="translate(0, 0)" filter="url(#glowSoft)">
      <rect x="0" y="0" width="44" height="44" rx="10" fill="url(#iconGrad)"/>
      <text x="22" y="31" text-anchor="middle" font-family="'Segoe UI', Arial, sans-serif" font-size="28" font-weight="bold" fill="white">D</text>
    </g>

    <!-- Headline -->
    <text x="58" y="22" font-family="'Segoe UI', Arial, Helvetica, sans-serif" font-size="21" font-weight="700" fill="white" letter-spacing="0.5" filter="url(#glowSoft)">GitOps at Scale</text>

    <!-- Subtitle -->
    <text x="58" y="50" font-family="'Segoe UI', Arial, sans-serif" font-size="14" font-weight="400" fill="#927AFA" letter-spacing="0.5" opacity="0.85">App of Apps vs ApplicationSet</text>

    <!-- Separator -->
    <line x1="0" y1="64" x2="450" y2="64" stroke="#571EFA" stroke-width="1" opacity="0.4"/>

    <!-- Tagline -->
    <text x="0" y="88" font-family="'Segoe UI', Arial, sans-serif" font-size="12" font-weight="400" fill="#DDD6FE" letter-spacing="0.5" opacity="0.7">30+ services · 8 sync phases · 3 environments</text>
    <text x="0" y="112" font-family="'Segoe UI', Arial, sans-serif" font-size="12" font-weight="400" fill="#DDD6FE" letter-spacing="0.5" opacity="0.7">Comparing ArgoCD patterns for openDesk deployments</text>

    <!-- Decision matrix badge -->
    <g transform="translate(0, 130)">
      <rect x="0" y="0" width="74" height="22" rx="11" fill="none" stroke="#22c55e" stroke-width="1.5" opacity="0.4"/>
      <text x="37" y="15" text-anchor="middle" font-family="'Segoe UI', Arial, sans-serif" font-size="10" fill="#22c55e" font-weight="600" opacity="0.7">DECISION</text>
      <rect x="84" y="0" width="100" height="22" rx="11" fill="none" stroke="#927AFA" stroke-width="1.5" opacity="0.4"/>
      <text x="134" y="15" text-anchor="middle" font-family="'Segoe UI', Arial, sans-serif" font-size="10" fill="#927AFA" font-weight="600" opacity="0.7">TWO-PHASE PLAN</text>
    </g>
  </g>

  <!-- ============ BOTTOM: KEY COMPARISON BADGES ============ -->

  <!-- App of Apps summary -->
  <g transform="translate(45, 455)">
    <rect width="355" height="70" rx="8" fill="url(#cardGrad)" stroke="#22c55e" stroke-width="1" stroke-opacity="0.3"/>
    <rect x="2" y="2" width="351" height="66" rx="6" fill="none" stroke="#22c55e" stroke-width="0.5" stroke-opacity="0.15"/>
    <!-- Tiny checkmark icon -->
    <circle cx="25" cy="35" r="14" fill="#22c55e" opacity="0.15"/>
    <path d="M19 35 L23 39 L31 31" stroke="#22c55e" stroke-width="2.5" fill="none" stroke-linecap="round" stroke-linejoin="round"/>
    <text x="48" y="28" font-family="'Segoe UI', Arial, sans-serif" font-size="13" font-weight="600" fill="#22c55e">App of Apps</text>
    <text x="48" y="45" font-family="'Segoe UI', Arial, sans-serif" font-size="10" fill="#DDD6FE" opacity="0.8">Phase 1: Simple migration · Low risk</text>
    <text x="48" y="58" font-family="'Segoe UI', Arial, sans-serif" font-size="10" fill="#DDD6FE" opacity="0.8">Per-app control · Manual per env</text>
  </g>

  <!-- ApplicationSet summary -->
  <g transform="translate(420, 455)">
    <rect width="355" height="70" rx="8" fill="url(#cardGrad)" stroke="#3b82f6" stroke-width="1" stroke-opacity="0.3"/>
    <rect x="2" y="2" width="351" height="66" rx="6" fill="none" stroke="#3b82f6" stroke-width="0.5" stroke-opacity="0.15"/>
    <circle cx="25" cy="35" r="14" fill="#3b82f6" opacity="0.15"/>
    <path d="M19 35 L23 39 L31 31" stroke="#3b82f6" stroke-width="2.5" fill="none" stroke-linecap="round" stroke-linejoin="round"/>
    <text x="48" y="28" font-family="'Segoe UI', Arial, sans-serif" font-size="13" font-weight="600" fill="#3b82f6">ApplicationSet</text>
    <text x="48" y="45" font-family="'Segoe UI', Arial, sans-serif" font-size="10" fill="#DDD6FE" opacity="0.8">Phase 2: Multi-cluster · Self-service</text>
    <text x="48" y="58" font-family="'Segoe UI', Arial, sans-serif" font-size="10" fill="#DDD6FE" opacity="0.8">Auto-discovery · Template driven</text>
  </g>

  <!-- Hybrid cross badge -->
  <g transform="translate(795, 455)">
    <rect width="355" height="70" rx="8" fill="url(#cardGrad)" stroke="#927AFA" stroke-width="1" stroke-opacity="0.3"/>
    <rect x="2" y="2" width="351" height="66" rx="6" fill="none" stroke="#927AFA" stroke-width="0.5" stroke-opacity="0.15"/>
    <circle cx="25" cy="35" r="14" fill="url(#iconGrad)" opacity="0.2"/>
    <text x="25" y="39" text-anchor="middle" font-family="'Segoe UI', Arial, sans-serif" font-size="12" font-weight="bold" fill="#927AFA">Hy</text>
    <text x="48" y="28" font-family="'Segoe UI', Arial, sans-serif" font-size="13" font-weight="600" fill="#927AFA">Hybrid</text>
    <text x="48" y="45" font-family="'Segoe UI', Arial, sans-serif" font-size="10" fill="#DDD6FE" opacity="0.8">Community best practice</text>
    <text x="48" y="58" font-family="'Segoe UI', Arial, sans-serif" font-size="10" fill="#DDD6FE" opacity="0.8">AooA bootstrap + AppSet scaling</text>
  </g>

  <!-- openDesk wordmark bottom-right -->
  <g transform="translate(890, 570)">
    <text x="0" y="0" font-family="'Segoe UI', Arial, Helvetica, sans-serif" font-size="20" font-weight="700" fill="white" letter-spacing="2" opacity="0.5">openDesk</text>
    <text x="107" y="0" font-family="'Segoe UI', Arial, Helvetica, sans-serif" font-size="20" font-weight="300" fill="#927AFA" letter-spacing="5" opacity="0.5">EDU</text>
  </g>
</svg>
