<svg xmlns="http://www.w3.org/2000/svg" width="1200" height="630" viewBox="0 0 1200 630"><title>openDesk Edu - SCS vs. Proxmox + K3s</title><desc>Branded teaser image for the SCS vs. Proxmox + K3s base-platform comparison article featuring a dark purple gradient background, cloud and server motif, grid pattern, and article title.</desc><defs><linearGradient id="bgGrad" x1="0%" x2="100%" y1="0%" y2="100%"><stop offset="0%" stop-color="#0a0014"/><stop offset="50%" stop-color="#0d0020"/><stop offset="100%" stop-color="#0a0014"/></linearGradient><linearGradient id="accentLeft" x1="0%" x2="100%" y1="0%" y2="0%"><stop offset="0%" stop-color="#571EFA" stop-opacity="0.3"/><stop offset="100%" stop-color="#571EFA" stop-opacity="0"/></linearGradient><linearGradient id="accentRight" x1="100%" x2="0%" y1="0%" y2="0%"><stop offset="0%" stop-color="#927AFA" stop-opacity="0.2"/><stop offset="100%" stop-color="#927AFA" stop-opacity="0"/></linearGradient><linearGradient id="iconGrad" x1="0%" x2="100%" y1="0%" y2="100%"><stop offset="0%" stop-color="#571EFA"/><stop offset="100%" stop-color="#927AFA"/></linearGradient><filter id="glowWide" width="300%" height="300%" x="-100%" y="-100%"><feGaussianBlur in="SourceGraphic" stdDeviation="40"/></filter><pattern id="grid" width="60" height="60" patternUnits="userSpaceOnUse"><path fill="none" stroke="#571EFA" stroke-width="0.5" d="M 60 0 L 0 0 0 60" opacity="0.06"/></pattern></defs><rect width="1200" height="630" fill="url(#bgGrad)"/><rect width="1200" height="630" fill="url(#grid)"/><rect width="400" height="630" x="0" y="0" fill="url(#accentLeft)"/><rect width="400" height="630" x="800" y="0" fill="url(#accentRight)"/><circle cx="600" cy="315" r="320" fill="#571EFA" filter="url(#glowWide)" opacity="0.12"/><text x="200" y="194" fill="white" font-family="Arial, Helvetica, sans-serif" font-size="36" font-weight="bold" letter-spacing="2">openDesk</text><text x="200" y="222" fill="#DDD6FE" font-family="Arial, Helvetica, sans-serif" font-size="18" font-weight="300" letter-spacing="10">EDUCATION</text><line x1="200" x2="555" y1="248" y2="248" stroke="#927AFA" stroke-width="1" opacity="0.4"/><g transform="translate(760, 120)"><g transform="translate(0, 0)"><rect width="80" height="60" x="-40" y="-10" fill="#571EFA" opacity="0.12" rx="8"/><path fill="none" stroke="#927AFA" stroke-width="2" d="M -18,18 Q -22,-4 0,-6 Q 14,-10 22,2 Q 34,4 30,16 Q 26,24 12,24 L -12,24 Q -26,24 -18,18 Z" opacity="0.9"/><text x="0" y="48" fill="#DDD6FE" font-family="Arial, Helvetica, sans-serif" font-size="13" font-weight="bold" letter-spacing="1" text-anchor="middle">SCS</text></g><circle cx="120" cy="20" r="28" fill="none" stroke="#571EFA" stroke-width="2.5" opacity="0.8"/><text x="120" y="28" fill="#571EFA" font-family="Arial, Helvetica, sans-serif" font-size="22" font-weight="bold" text-anchor="middle">VS</text><g transform="translate(250, 0)"><rect width="68" height="64" x="-34" y="-12" fill="#571EFA" opacity="0.12" rx="6"/><rect width="52" height="10" x="-26" y="-6" fill="#927AFA" opacity="0.55" rx="2"/><rect width="52" height="10" x="-26" y="8" fill="#927AFA" opacity="0.35" rx="2"/><rect width="52" height="10" x="-26" y="22" fill="#927AFA" opacity="0.2" rx="2"/><circle cx="-14" cy="-1" r="2" fill="#22c55e"/><text x="0" y="48" fill="#DDD6FE" font-family="Arial, Helvetica, sans-serif" font-size="13" font-weight="bold" letter-spacing="1" text-anchor="middle">PROXMOX</text></g></g><g transform="translate(200, 300)"><circle cx="0" cy="0" r="5" fill="#571EFA" opacity="0.7"/><circle cx="24" cy="0" r="5" fill="#927AFA" opacity="0.7"/><circle cx="48" cy="0" r="5" fill="#571EFA" opacity="0.7"/><text x="78" y="5" fill="#DDD6FE" font-family="Arial, Helvetica, sans-serif" font-size="15" font-weight="bold">+ K3s</text></g><text x="200" y="380" fill="white" font-family="Arial, Helvetica, sans-serif" font-size="40" font-weight="bold">SCS vs. Proxmox</text><text x="200" y="428" fill="#DDD6FE" font-family="Arial, Helvetica, sans-serif" font-size="40" font-weight="bold">+ K3s</text><text x="200" y="472" fill="#DDD6FE" font-family="Arial, Helvetica, sans-serif" font-size="18" opacity="0.9">Choosing a Kubernetes Base for openDesk Edu</text><g transform="translate(200, 520)"><rect width="52" height="24" x="0" y="0" fill="#571EFA" opacity="0.2" rx="12"/><text x="26" y="16" fill="#927AFA" font-family="Arial, Helvetica, sans-serif" font-size="11" font-weight="500" text-anchor="middle">SCS</text><rect width="86" height="24" x="62" y="0" fill="#571EFA" opacity="0.15" rx="12"/><text x="105" y="16" fill="#927AFA" font-family="Arial, Helvetica, sans-serif" font-size="11" font-weight="500" text-anchor="middle">Proxmox VE</text><rect width="52" height="24" x="158" y="0" fill="#571EFA" opacity="0.15" rx="12"/><text x="184" y="16" fill="#927AFA" font-family="Arial, Helvetica, sans-serif" font-size="11" font-weight="500" text-anchor="middle">K3s</text><rect width="92" height="24" x="220" y="0" fill="#571EFA" opacity="0.15" rx="12"/><text x="266" y="16" fill="#927AFA" font-family="Arial, Helvetica, sans-serif" font-size="11" font-weight="500" text-anchor="middle">Kubernetes</text><rect width="96" height="24" x="322" y="0" fill="#571EFA" opacity="0.15" rx="12"/><text x="370" y="16" fill="#927AFA" font-family="Arial, Helvetica, sans-serif" font-size="11" font-weight="500" text-anchor="middle">Sovereignty</text></g><g opacity="0.06"><rect width="16" height="16" x="180" y="575" fill="#571EFA" rx="3"/><path fill="none" stroke="white" stroke-linecap="round" stroke-width="1.2" d="M 185,579 L 185,577 Q 185,574 188,574 Q 191,574 191,577 L 191,579"/><circle cx="188" cy="583" r="1.2" fill="white"/><rect width="16" height="16" x="246" y="575" fill="#22c55e" rx="3"/><path fill="none" stroke="white" stroke-linecap="round" stroke-linejoin="round" stroke-width="1.2" d="M 251,583 L 253.5,586 L 258,580"/><path stroke="#927AFA" stroke-width="1" d="M 266,583 L 306,583"/><rect width="16" height="16" x="312" y="575" fill="#3b82f6" rx="3"/></g><line x1="1000" x2="1000" y1="100" y2="530" stroke="#571EFA" stroke-width="0.5" opacity="0.06"/><line x1="1050" x2="1050" y1="150" y2="500" stroke="#927AFA" stroke-width="0.5" opacity="0.05"/><line x1="1100" x2="1100" y1="120" y2="480" stroke="#571EFA" stroke-width="0.5" opacity="0.04"/><path fill="none" stroke="#571EFA" stroke-width="1.5" d="M 20,20 L 50,20 M 20,20 L 20,50" opacity="0.25"/><path fill="none" stroke="#927AFA" stroke-width="1.5" d="M 1180,20 L 1150,20 M 1180,20 L 1180,50" opacity="0.2"/><path fill="none" stroke="#571EFA" stroke-width="1.5" d="M 20,610 L 50,610 M 20,610 L 20,580" opacity="0.25"/><path fill="none" stroke="#927AFA" stroke-width="1.5" d="M 1180,610 L 1150,610 M 1180,610 L 1180,580" opacity="0.25"/></svg>