<svg xmlns="http://www.w3.org/2000/svg" width="1200" height="630" viewBox="0 0 1200 630"><title>openDesk Edu - Stateful Services Are Pets</title><desc>Branded teaser image for the openDesk Edu stateful services article featuring a dark purple gradient background, a heart-and-database shield icon, grid pattern, and article title.</desc><defs><linearGradient id="bgGrad" x1="0%" x2="100%" y1="0%" y2="100%"><stop offset="0%" stop-color="#0a0014"/><stop offset="50%" stop-color="#0d0020"/><stop offset="100%" stop-color="#0a0014"/></linearGradient><linearGradient id="accentLeft" x1="0%" x2="100%" y1="0%" y2="0%"><stop offset="0%" stop-color="#571EFA" stop-opacity="0.3"/><stop offset="100%" stop-color="#571EFA" stop-opacity="0"/></linearGradient><linearGradient id="accentRight" x1="100%" x2="0%" y1="0%" y2="0%"><stop offset="0%" stop-color="#927AFA" stop-opacity="0.2"/><stop offset="100%" stop-color="#927AFA" stop-opacity="0"/></linearGradient><linearGradient id="iconGrad" x1="0%" x2="100%" y1="0%" y2="100%"><stop offset="0%" stop-color="#571EFA"/><stop offset="100%" stop-color="#927AFA"/></linearGradient><linearGradient id="shieldGrad" x1="0%" x2="0%" y1="0%" y2="100%"><stop offset="0%" stop-color="#571EFA"/><stop offset="100%" stop-color="#1a0a30"/></linearGradient><linearGradient id="heartGrad" x1="0%" x2="100%" y1="0%" y2="100%"><stop offset="0%" stop-color="#ef4444"/><stop offset="100%" stop-color="#dc2626"/></linearGradient><filter id="glowWide" width="300%" height="300%" x="-100%" y="-100%"><feGaussianBlur in="SourceGraphic" stdDeviation="40"/></filter><pattern id="grid" width="60" height="60" patternUnits="userSpaceOnUse"><path fill="none" stroke="#571EFA" stroke-width="0.5" d="M 60 0 L 0 0 0 60" opacity="0.06"/></pattern><pattern id="dotGrid" width="40" height="40" patternUnits="userSpaceOnUse"><circle cx="20" cy="20" r="1" fill="#927AFA" opacity="0.12"/></pattern></defs><rect width="1200" height="630" fill="url(#bgGrad)"/><rect width="1200" height="630" fill="url(#grid)"/><rect width="1200" height="630" fill="url(#dotGrid)"/><rect width="200" height="630" x="0" y="0" fill="url(#accentLeft)"/><rect width="200" height="630" x="1000" y="0" fill="url(#accentRight)"/><rect width="1200" height="2" x="0" y="0" fill="#571EFA" opacity="0.4"/><rect width="1200" height="2" x="0" y="628" fill="#927AFA" opacity="0.2"/><ellipse cx="200" cy="315" fill="#571EFA" filter="url(#glowWide)" opacity="0.06" rx="250" ry="250"/><ellipse cx="1000" cy="315" fill="#927AFA" filter="url(#glowWide)" opacity="0.04" rx="200" ry="200"/><g opacity="0.10" transform="translate(30, 70)"><ellipse cx="80" cy="30" fill="none" stroke="#927AFA" stroke-width="1.2" rx="34" ry="9"/><path fill="none" stroke="#927AFA" stroke-width="1.2" d="M 48,30 L 48,56 M 112,30 L 112,56"/><path fill="none" stroke="#927AFA" stroke-width="1.2" d="M 48,56 A 34 9 0 0 0 112 56"/><ellipse cx="80" cy="56" fill="none" stroke="#571EFA" stroke-width="1.2" rx="34" ry="9"/><ellipse cx="80" cy="80" fill="none" stroke="#927AFA" stroke-width="1.2" rx="34" ry="9"/><path fill="none" stroke="#927AFA" stroke-width="1" d="M 48,56 L 48,80 M 112,56 L 112,80"/><path fill="none" stroke="#927AFA" stroke-width="1.2" d="M 48,80 A 34 9 0 0 0 112 80"/><path fill="#927AFA" d="M 80,60 C 62,48 62,30 80,42 C 98,30 98,48 80,60 Z"/><path fill="none" stroke="#927AFA" stroke-width="2" d="M 185,30 L 205,30 M 195,20 L 195,40" opacity="0.8"/><path fill="none" stroke="#927AFA" stroke-width="2" d="M 185,60 L 205,60 M 195,50 L 195,70" opacity="0.8"/></g><g transform="translate(60, 120)"><rect width="110" height="110" x="0" y="0" fill="url(#iconGrad)" opacity="0.95" rx="22"/><path fill="url(#shieldGrad)" stroke="white" stroke-width="2.5" d="M 55,18 L 86,30 L 86,58 C 86,78 72,88 55,94 C 38,88 24,78 24,58 L 24,30 Z" opacity="0.95"/><ellipse cx="55" cy="50" fill="none" stroke="white" stroke-width="1.8" rx="16" ry="4.5"/><path fill="none" stroke="white" stroke-width="1.8" d="M 39,50 L 39,66 M 71,50 L 71,66"/><path fill="none" stroke="white" stroke-width="1.8" d="M 39,66 A 16 4.5 0 0 0 71 66"/><path fill="url(#heartGrad)" stroke="#f5f3ff" stroke-width="1" d="M 55,46 C 40,37 40,20 55,30 C 70,20 70,37 55,46 Z"/><path fill="none" stroke="white" stroke-linecap="round" stroke-linejoin="round" stroke-width="2.2" d="M 47,33 L 51,37 L 60,28"/></g><text x="200" y="194" fill="white" font-family="Arial, Helvetica, sans-serif" font-size="36" font-weight="bold" letter-spacing="2">openDesk</text><text x="200" y="222" fill="#DDD6FE" font-family="Arial, Helvetica, sans-serif" font-size="18" font-weight="300" letter-spacing="10">EDUCATION</text><line x1="200" x2="380" y1="236" y2="236" stroke="#571EFA" stroke-width="1" opacity="0.4"/><rect width="140" height="28" x="200" y="260" fill="#571EFA" opacity="0.25" rx="14"/><text x="270" y="279" fill="#927AFA" font-family="Arial, Helvetica, sans-serif" font-size="13" font-weight="600" letter-spacing="1" text-anchor="middle">DEVOPS</text><line x1="200" x2="950" y1="312" y2="312" stroke="#571EFA" stroke-width="1.5" opacity="0.2"/><text x="200" y="340" fill="white" font-family="Arial, Helvetica, sans-serif" font-size="28" font-weight="700">
    <tspan x="200" dy="0">Stateful Services Are Pets</tspan>
    <tspan x="200" fill="#DDD6FE" dy="38" font-size="22" font-weight="400">why your app deploy must never touch the database</tspan>
  </text><text x="200" y="420" fill="#927AFA" font-family="Arial, Helvetica, sans-serif" font-size="15" opacity="0.8">
    <tspan x="200" dy="0">One flag -- no-deps -- kept a routine deploy from</tspan>
    <tspan x="200" dy="22">recreating Dgraph and SIGKILLing production.</tspan>
  </text><g transform="translate(200, 480)"><rect width="80" height="24" x="0" y="0" fill="#571EFA" opacity="0.2" rx="12"/><text x="40" y="16" fill="#927AFA" font-family="Arial, Helvetica, sans-serif" font-size="11" font-weight="500" text-anchor="middle">dgraph</text><rect width="90" height="24" x="90" y="0" fill="#571EFA" opacity="0.15" rx="12"/><text x="135" y="16" fill="#927AFA" font-family="Arial, Helvetica, sans-serif" font-size="11" font-weight="500" text-anchor="middle">postgres</text><rect width="105" height="24" x="190" y="0" fill="#571EFA" opacity="0.15" rx="12"/><text x="242" y="16" fill="#927AFA" font-family="Arial, Helvetica, sans-serif" font-size="11" font-weight="500" text-anchor="middle">--no-deps</text><rect width="85" height="24" x="305" y="0" fill="#571EFA" opacity="0.15" rx="12"/><text x="347" y="16" fill="#927AFA" font-family="Arial, Helvetica, sans-serif" font-size="11" font-weight="500" text-anchor="middle">cattle</text><rect width="70" height="24" x="400" y="0" fill="#571EFA" opacity="0.15" rx="12"/><text x="435" y="16" fill="#927AFA" font-family="Arial, Helvetica, sans-serif" font-size="11" font-weight="500" text-anchor="middle">pets</text></g><g opacity="0.06"><circle cx="190" cy="546" r="5" fill="#571EFA"/><circle cx="208" cy="546" r="5" fill="#927AFA"/><path stroke="#927AFA" stroke-width="1" d="M 218,546 L 250,546"/><circle cx="260" cy="546" r="5" fill="#571EFA"/><circle cx="278" cy="546" r="5" fill="#927AFA"/><path stroke="#927AFA" stroke-width="1" d="M 288,546 L 310,546"/><circle cx="320" cy="546" r="5" fill="#571EFA"/></g><line x1="1000" x2="1000" y1="100" y2="530" stroke="#571EFA" stroke-width="0.5" opacity="0.06"/><line x1="1050" x2="1050" y1="150" y2="500" stroke="#927AFA" stroke-width="0.5" opacity="0.05"/><line x1="1100" x2="1100" y1="120" y2="480" stroke="#571EFA" stroke-width="0.5" opacity="0.04"/><path fill="none" stroke="#571EFA" stroke-width="1.5" d="M 20,20 L 50,20 M 20,20 L 20,50" opacity="0.25"/><path fill="none" stroke="#927AFA" stroke-width="1.5" d="M 1180,20 L 1150,20 M 1180,20 L 1180,50" opacity="0.2"/><path fill="none" stroke="#571EFA" stroke-width="1.5" d="M 20,610 L 50,610 M 20,610 L 20,580" opacity="0.25"/><path fill="none" stroke="#927AFA" stroke-width="1.5" d="M 1180,610 L 1150,610 M 1180,610 L 1180,580" opacity="0.2"/></svg>